<svg xmlns="http://www.w3.org/2000/svg" xmlns:xlink="http://www.w3.org/1999/xlink" width="100" zoomAndPan="magnify" viewBox="0 0 75 33.749998" height="45" preserveAspectRatio="xMidYMid meet" version="1.0"><defs><g/></defs><g fill="#000000" fill-opacity="1"><g transform="translate(14.106034, 25.015361)"><g><path d="M 3.6875 0 C 3.164062 0 2.707031 -0.191406 2.3125 -0.578125 C 1.925781 -0.972656 1.734375 -1.457031 1.734375 -2.03125 L 1.734375 -17.484375 C 1.734375 -18.066406 1.925781 -18.550781 2.3125 -18.9375 C 2.707031 -19.332031 3.164062 -19.53125 3.6875 -19.53125 L 10.015625 -19.53125 C 10.609375 -19.53125 11.09375 -19.332031 11.46875 -18.9375 C 11.851562 -18.550781 12.046875 -18.066406 12.046875 -17.484375 L 12.046875 -2.03125 C 12.046875 -1.457031 11.851562 -0.972656 11.46875 -0.578125 C 11.09375 -0.191406 10.609375 0 10.015625 0 Z M 5.265625 -2.5625 L 8.421875 -2.5625 C 8.734375 -2.5625 8.988281 -2.660156 9.1875 -2.859375 C 9.382812 -3.066406 9.484375 -3.320312 9.484375 -3.625 L 9.484375 -15.890625 C 9.484375 -16.210938 9.382812 -16.46875 9.1875 -16.65625 C 8.988281 -16.851562 8.734375 -16.953125 8.421875 -16.953125 L 5.265625 -16.953125 C 5.003906 -16.953125 4.773438 -16.851562 4.578125 -16.65625 C 4.390625 -16.46875 4.296875 -16.210938 4.296875 -15.890625 L 4.296875 -3.625 C 4.296875 -3.320312 4.390625 -3.066406 4.578125 -2.859375 C 4.773438 -2.660156 5.003906 -2.5625 5.265625 -2.5625 Z M 5.265625 -2.5625 "/></g></g></g><g fill="#000000" fill-opacity="1"><g transform="translate(27.879705, 25.015361)"><g><path d="M 5.546875 0 L 1.734375 -19.53125 L 4.328125 -19.53125 L 6.921875 -6.328125 L 9.515625 -19.53125 L 12.109375 -19.53125 L 8.25 0 Z M 5.546875 0 "/></g></g></g><g fill="#000000" fill-opacity="1"><g transform="translate(41.430319, 25.015361)"><g><path d="M 1.734375 0 L 1.734375 -19.53125 L 4.328125 -19.53125 L 4.328125 0 Z M 1.734375 0 "/></g></g></g><g fill="#000000" fill-opacity="1"><g transform="translate(47.201876, 25.015361)"><g><path d="M 1.734375 0 L 1.734375 -19.53125 L 12.109375 -19.53125 L 12.109375 -16.953125 L 4.328125 -16.953125 L 4.328125 -12.109375 L 9.515625 -12.109375 L 8.921875 -9.515625 L 4.328125 -9.515625 L 4.328125 -2.59375 L 12.109375 -2.59375 L 12.109375 0 Z M 1.734375 0 "/></g></g></g><g fill="#000000" fill-opacity="1"><g transform="translate(61.031312, 25.015361)"><g><path d="M 3.6875 0 C 3.125 0 2.644531 -0.191406 2.25 -0.578125 C 1.863281 -0.972656 1.671875 -1.453125 1.671875 -2.015625 L 1.671875 -6.328125 L 4.265625 -5.75 L 4.265625 -3.59375 C 4.265625 -3.3125 4.363281 -3.070312 4.5625 -2.875 C 4.757812 -2.6875 4.988281 -2.59375 5.25 -2.59375 L 8.421875 -2.59375 C 8.703125 -2.59375 8.9375 -2.6875 9.125 -2.875 C 9.320312 -3.070312 9.421875 -3.3125 9.421875 -3.59375 L 9.421875 -8.5 C 9.421875 -8.78125 9.320312 -9.019531 9.125 -9.21875 C 8.9375 -9.414062 8.703125 -9.515625 8.421875 -9.515625 L 3.6875 -9.515625 C 3.125 -9.515625 2.644531 -9.707031 2.25 -10.09375 C 1.863281 -10.488281 1.671875 -10.960938 1.671875 -11.515625 L 1.671875 -17.515625 C 1.671875 -18.078125 1.863281 -18.550781 2.25 -18.9375 C 2.644531 -19.332031 3.125 -19.53125 3.6875 -19.53125 L 10.015625 -19.53125 C 10.566406 -19.53125 11.035156 -19.332031 11.421875 -18.9375 C 11.816406 -18.550781 12.015625 -18.078125 12.015625 -17.515625 L 12.015625 -14.5 L 9.421875 -15.109375 L 9.421875 -15.921875 C 9.421875 -16.203125 9.320312 -16.4375 9.125 -16.625 C 8.9375 -16.820312 8.703125 -16.921875 8.421875 -16.921875 L 5.25 -16.921875 C 4.988281 -16.921875 4.757812 -16.820312 4.5625 -16.625 C 4.363281 -16.4375 4.265625 -16.203125 4.265625 -15.921875 L 4.265625 -13.109375 C 4.265625 -12.828125 4.363281 -12.585938 4.5625 -12.390625 C 4.757812 -12.203125 4.988281 -12.109375 5.25 -12.109375 L 10.015625 -12.109375 C 10.566406 -12.109375 11.035156 -11.910156 11.421875 -11.515625 C 11.816406 -11.128906 12.015625 -10.65625 12.015625 -10.09375 L 12.015625 -2.015625 C 12.015625 -1.453125 11.816406 -0.972656 11.421875 -0.578125 C 11.035156 -0.191406 10.566406 0 10.015625 0 Z M 3.6875 0 "/></g></g></g><g fill="#000000" fill-opacity="1"><g transform="translate(0.275738, 25.015361)"><g><path d="M 1.734375 0 L 1.734375 -19.53125 L 4.328125 -19.53125 L 9.515625 -6.5 L 9.515625 -19.53125 L 12.109375 -19.53125 L 12.109375 0 L 9.515625 0 L 4.328125 -13.03125 L 4.328125 0 Z M 1.734375 0 "/></g></g></g></svg>